<svg xmlns="http://www.w3.org/2000/svg" width="20" height="20" viewBox="0 0 20 20">
  <defs>
    <style>
      .cls-1 {
        opacity: 0.5;
      }

      .cls-2 {
        fill: none;
      }

      .cls-3 {
        fill: #444f5e;
      }
    </style>
  </defs>
  <g id="data_image_svg_xml_21_" data-name="data_image_svg+xml;… (21)" class="cls-1">
    <path id="Path_54" data-name="Path 54" class="cls-2" d="M0,20V0H20V20Z"/>
    <g id="Group_7417" data-name="Group 7417" transform="translate(2 2)">
      <path id="Path_55" data-name="Path 55" class="cls-3" d="M25.2,17.2a8,8,0,1,0,8,8A8,8,0,0,0,25.2,17.2Zm4,8.667H25.867V29.2a.667.667,0,0,1-1.333,0V25.867H21.2a.667.667,0,0,1,0-1.333h3.333V21.2a.667.667,0,1,1,1.333,0v3.333H29.2a.667.667,0,0,1,0,1.333Z" transform="translate(-17.2 -17.2)"/>
    </g>
  </g>
</svg>
