<svg id="data_image_svg_xml_" data-name="data_image_svg+xml;…" xmlns="http://www.w3.org/2000/svg" width="20" height="20" viewBox="0 0 20 20">
  <defs>
    <style>
      .cls-1 {
        fill: none;
      }

      .cls-2 {
        fill: #464c55;
      }
    </style>
  </defs>
  <path id="Path_1311" data-name="Path 1311" class="cls-1" d="M0,0V20H20V0Z"/>
  <g id="Group_1067" data-name="Group 1067" transform="translate(3 3)">
    <path id="Path_1312" data-name="Path 1312" class="cls-2" d="M27.552,35.5l-2.333-4.667H21.5V21.5H32.493a1.759,1.759,0,0,1,1.714,1.385l1.258,5.833a1.763,1.763,0,0,1-1.714,2.115H29.211a6.19,6.19,0,0,0,.328,1.568,3.9,3.9,0,0,1,.128,1.349,1.8,1.8,0,0,1-1.75,1.75Zm.656-1.313c.036-.027.1-.018.128-.055a.646.646,0,0,0,.164-.383,3.469,3.469,0,0,0-.073-.984,11.141,11.141,0,0,1-.51-2.479l-.036-.62h5.87a.572.572,0,0,0,.565-.711l-1.24-5.833a.587.587,0,0,0-.583-.456H26.167V30.1Zm-5.542-4.521H25v-7H22.667Zm1.167-5.25a.583.583,0,1,1,.583-.583A.584.584,0,0,1,23.833,24.417Z" transform="translate(-21.5 -21.5)"/>
  </g>
</svg>
