<svg xmlns="http://www.w3.org/2000/svg" width="48" height="48" viewBox="0 0 48 48">
  <defs>
    <style>
      .cls-1 {
        opacity: 0.1;
      }

      .cls-2 {
        fill: none;
      }

      .cls-3 {
        fill: #444f5e;
      }
    </style>
  </defs>
  <g id="data_image_svg_xml_12_" data-name="data_image_svg+xml;… (12)" class="cls-1">
    <path id="Path_1489" data-name="Path 1489" class="cls-2" d="M0,48V0H48V48Z"/>
    <g id="Group_8632" data-name="Group 8632" transform="translate(4.805 6.394)">
      <path id="Path_1490" data-name="Path 1490" class="cls-3" d="M25.235,22.888a1.6,1.6,0,0,0-1,.331A20.481,20.481,0,0,0,17.2,38.894V54.888a3.2,3.2,0,0,0,3.2,3.2H30a3.2,3.2,0,0,0,3.2-3.2v-12.8a3.2,3.2,0,0,0-3.2-3.2H23.533c-.04-2.848.239-8.939,2.98-13.476a1.6,1.6,0,0,0-1.278-2.53Zm22.394,0a1.6,1.6,0,0,0-1,.331,20.481,20.481,0,0,0-7.039,15.675V54.888a3.2,3.2,0,0,0,3.2,3.2h9.6a3.2,3.2,0,0,0,3.2-3.2v-12.8a3.2,3.2,0,0,0-3.2-3.2H45.927c-.04-2.848.239-8.939,2.98-13.476a1.6,1.6,0,0,0-1.278-2.53Z" transform="translate(-17.2 -22.888)"/>
    </g>
  </g>
</svg>
