<svg xmlns="http://www.w3.org/2000/svg" width="56" height="56" viewBox="0 0 56 56">
  <defs>
    <style>
      .cls-1 {
        fill: #444f5e;
      }
    </style>
  </defs>
  <g id="dentist_4_" data-name="dentist (4)" transform="translate(0 -2.641)">
    <g id="Group_8918" data-name="Group 8918" transform="translate(0 2.641)">
      <g id="Group_8917" data-name="Group 8917">
        <path id="Path_2001" data-name="Path 2001" class="cls-1" d="M163.914,72.211l0,.005a14.794,14.794,0,0,0-3.239-5.02.813.813,0,0,0-1.151-.049.837.837,0,0,0-.056,1.172,12.857,12.857,0,0,1,1.015,1.145c5.363,6.852,3.283,18.751-4.6,24.284a.833.833,0,0,0-.346.788c1.172,9.156-2.714,16.6-4.053,16.6-.109,0-.321-.388-.451-.9-.486-1.9.109-5-1.067-8.186a6.42,6.42,0,0,0-12.255.013c-1.147,3.31-.595,6.3-1.063,8.174-.226.873-.451.9-.451.9-1.309,0-5.234-7.372-4.053-16.6a.833.833,0,0,0-.346-.788,18.529,18.529,0,0,1-7.144-18.91,15.352,15.352,0,0,1,.794-2.4c.165-.379.2-.579.657-.6a.806.806,0,0,0,.157-.009,6.869,6.869,0,0,0,5.536-3.4,4.636,4.636,0,0,0,6.611-2.853.692.692,0,0,1,.071-.2,13.27,13.27,0,0,1,4.907,2.1.812.812,0,0,0,.907,0c4.431-2.976,9.39-3.059,13.077-.79.878.538,1.905-.806.693-1.513-4.152-2.445-9.476-2.354-14.223.626a15.388,15.388,0,0,0-5.015-2.058,1.69,1.69,0,0,0-1.959,1.249A2.994,2.994,0,0,1,132.6,66.98a1.561,1.561,0,0,0-2.143.48q-.053.1-.109.19h0a.831.831,0,0,0-.049.093,5.312,5.312,0,0,1-4.212,2.433,2.139,2.139,0,0,0-1.974,1.221,16.627,16.627,0,0,0-1.059,3.081,20.229,20.229,0,0,0,7.405,20.342c-.972,8.827,2.56,17.971,5.737,17.974,2.683,0,2.225-5.037,2.417-7.031.244-2.633,1.108-5.538,3.618-6.277h0a4.8,4.8,0,0,1,6.279,3.387h0c1.068,3.38.271,5.705,1.024,8.092.5,1.591,1.435,1.829,1.949,1.829,3.154,0,6.717-9.083,5.738-17.974C164.3,89.555,166.942,79.366,163.914,72.211Z" transform="translate(-109.151 -56.794)"/>
        <path id="Path_2002" data-name="Path 2002" class="cls-1" d="M16.35,6.221a.824.824,0,0,0-.82-.828H12.4V5.121a2.469,2.469,0,0,0-2.454-2.48H6.02a2.469,2.469,0,0,0-2.454,2.48v.272H2.193a2.255,2.255,0,0,0-2.187,2.5c0,4.726-.049,4.544.136,4.826l3.565,5.452h-.9a2.289,2.289,0,0,0-2.275,2.3V39.335a2.3,2.3,0,0,0,1.455,2.141V56.343a2.289,2.289,0,0,0,2.275,2.3H6.2a2.289,2.289,0,0,0,2.275-2.3V47.733a.82.82,0,1,0-1.64,0v8.609a.639.639,0,0,1-.635.642H4.261a.639.639,0,0,1-.635-.642V41.633H6.835v3.449a.82.82,0,1,0,1.64,0V41.476A2.3,2.3,0,0,0,9.93,39.335v-11.7a.82.82,0,1,0-1.64,0v8.711H2.171V23.463H8.29v1.37a.82.82,0,1,0,1.64,0V20.471a2.289,2.289,0,0,0-2.275-2.3H5.672L1.646,12.014V7.894c0-.706.285-.827.57-.844H3.567v.272A2.469,2.469,0,0,0,6.021,9.8H9.948A2.469,2.469,0,0,0,12.4,7.322V7.05h3.129A.824.824,0,0,0,16.35,6.221ZM8.29,38v1.336a.639.639,0,0,1-.635.642H2.806a.639.639,0,0,1-.635-.642V38ZM5.451,19.829h2.2a.639.639,0,0,1,.635.642v1.336H2.171V20.471a.639.639,0,0,1,.635-.642H5.451ZM10.762,7.322a.819.819,0,0,1-.814.823H6.02a.819.819,0,0,1-.814-.823v-2.2A.819.819,0,0,1,6.02,4.3H9.948a.819.819,0,0,1,.814.823v2.2Z" transform="translate(0 -2.641)"/>
      </g>
    </g>
  </g>
</svg>
