<svg id="mouthwash" xmlns="http://www.w3.org/2000/svg" width="20" height="20" viewBox="0 0 20 20">
  <defs>
    <style>
      .cls-1 {
        fill: #444f5e;
      }
    </style>
  </defs>
  <g id="Group_11182" data-name="Group 11182" transform="translate(12.258 11.935)">
    <g id="Group_11181" data-name="Group 11181">
      <path id="Path_3061" data-name="Path 3061" class="cls-1" d="M308.088,296H308a1.792,1.792,0,0,0-.894.251.345.345,0,0,1-.413,0A1.8,1.8,0,0,0,305.8,296h-.084A1.72,1.72,0,0,0,304,297.718v.245a3.718,3.718,0,0,0,.53,1.913,3.073,3.073,0,0,1,.438,1.581v.155a.841.841,0,0,0,1.673.119l.213-1.494a.051.051,0,0,1,.1,0l.213,1.494a.841.841,0,0,0,1.673-.119v-.155a3.073,3.073,0,0,1,.438-1.581,3.718,3.718,0,0,0,.53-1.913v-.245A1.72,1.72,0,0,0,308.088,296Zm1.073,1.963a3.073,3.073,0,0,1-.438,1.581,3.718,3.718,0,0,0-.53,1.913v.155a.2.2,0,0,1-.389.027l-.213-1.494a.695.695,0,0,0-1.375,0L306,301.639a.2.2,0,0,1-.39-.028v-.155a3.718,3.718,0,0,0-.53-1.913,3.073,3.073,0,0,1-.438-1.581v-.245a1.074,1.074,0,0,1,1.073-1.073h.084a1.157,1.157,0,0,1,.575.167.97.97,0,0,0,1.053,0,1.155,1.155,0,0,1,.574-.167h.084a1.074,1.074,0,0,1,1.073,1.073Z" transform="translate(-304 -296)"/>
    </g>
  </g>
  <g id="Group_11184" data-name="Group 11184" transform="translate(13.995 13.307)">
    <g id="Group_11183" data-name="Group 11183">
      <path id="Path_3062" data-name="Path 3062" class="cls-1" d="M349.1,330.025a1.615,1.615,0,0,1-1.693,0l-.319.561a2.251,2.251,0,0,0,2.331,0Z" transform="translate(-347.088 -330.024)"/>
    </g>
  </g>
  <g id="Group_11186" data-name="Group 11186">
    <g id="Group_11185" data-name="Group 11185">
      <path id="Path_3063" data-name="Path 3063" class="cls-1" d="M15.161,10.323a4.838,4.838,0,0,0-4.194,2.435V7.742h.323a.969.969,0,0,0,.968-.968V4.839a.969.969,0,0,0-.968-.968h-2.9V.645A.646.646,0,0,0,7.742,0H4.516a.646.646,0,0,0-.645.645V3.871H.968A.969.969,0,0,0,0,4.839V6.774a.969.969,0,0,0,.968.968H1.29v7.1H.968A.969.969,0,0,0,0,15.806v3.226A.969.969,0,0,0,.968,20H11.29a.969.969,0,0,0,.968-.968v-.009a4.836,4.836,0,1,0,2.9-8.7ZM7.1.645h.645V2.581H7.1Zm-1.29,0h.645V2.581H5.806Zm-1.29,0h.645V2.581H4.516Zm0,2.581H7.742v.645H4.516Zm7.1,15.806a.323.323,0,0,1-.323.323H.968a.323.323,0,0,1-.323-.323V15.806a.323.323,0,0,1,.323-.323H3.226v-.645H1.935v-7.1h7.1V7.1H.968a.323.323,0,0,1-.323-.323V4.839a.323.323,0,0,1,.323-.323H11.29a.323.323,0,0,1,.323.323V6.774a.323.323,0,0,1-.323.323H9.677v.645h.645v7.1H3.871v.645h6.468a4.814,4.814,0,0,0,1.274,2.956v.592Zm3.548.323a4.194,4.194,0,1,1,4.194-4.194A4.2,4.2,0,0,1,15.161,19.355Z"/>
    </g>
  </g>
  <g id="Group_11188" data-name="Group 11188" transform="translate(3.194 8.387)">
    <g id="Group_11187" data-name="Group 11187">
      <path id="Path_3064" data-name="Path 3064" class="cls-1" d="M79.2,208v1.935h5.871V208Zm5.226,1.29H79.845v-.645h4.581Z" transform="translate(-79.2 -208)"/>
    </g>
  </g>
  <g id="Group_11190" data-name="Group 11190" transform="translate(3.226 10.968)">
    <g id="Group_11189" data-name="Group 11189">
      <rect id="Rectangle_640" data-name="Rectangle 640" class="cls-1" width="5.806" height="0.645"/>
    </g>
  </g>
  <g id="Group_11192" data-name="Group 11192" transform="translate(3.226 12.258)">
    <g id="Group_11191" data-name="Group 11191">
      <rect id="Rectangle_641" data-name="Rectangle 641" class="cls-1" width="1.935" height="0.645"/>
    </g>
  </g>
  <g id="Group_11194" data-name="Group 11194" transform="translate(7.097 12.258)">
    <g id="Group_11193" data-name="Group 11193">
      <rect id="Rectangle_642" data-name="Rectangle 642" class="cls-1" width="1.935" height="0.645"/>
    </g>
  </g>
  <g id="Group_11196" data-name="Group 11196" transform="translate(3.226 13.548)">
    <g id="Group_11195" data-name="Group 11195">
      <rect id="Rectangle_643" data-name="Rectangle 643" class="cls-1" width="0.645" height="0.645"/>
    </g>
  </g>
  <g id="Group_11198" data-name="Group 11198" transform="translate(4.516 13.548)">
    <g id="Group_11197" data-name="Group 11197">
      <rect id="Rectangle_644" data-name="Rectangle 644" class="cls-1" width="0.645" height="0.645"/>
    </g>
  </g>
  <g id="Group_11200" data-name="Group 11200" transform="translate(5.806 13.548)">
    <g id="Group_11199" data-name="Group 11199">
      <rect id="Rectangle_645" data-name="Rectangle 645" class="cls-1" width="0.645" height="0.645"/>
    </g>
  </g>
  <g id="Group_11202" data-name="Group 11202" transform="translate(7.097 13.548)">
    <g id="Group_11201" data-name="Group 11201">
      <rect id="Rectangle_646" data-name="Rectangle 646" class="cls-1" width="0.645" height="0.645"/>
    </g>
  </g>
  <g id="Group_11204" data-name="Group 11204" transform="translate(8.387 13.548)">
    <g id="Group_11203" data-name="Group 11203">
      <rect id="Rectangle_647" data-name="Rectangle 647" class="cls-1" width="0.645" height="0.645"/>
    </g>
  </g>
</svg>
