<svg xmlns="http://www.w3.org/2000/svg" width="20" height="20" viewBox="0 0 20 20">
  <defs>
    <style>
      .cls-1 {
        fill: #444f5e;
      }
    </style>
  </defs>
  <g id="dentist_5_" data-name="dentist (5)" transform="translate(-0.003)">
    <path id="Path_2740" data-name="Path 2740" class="cls-1" d="M95.182,21.636a.333.333,0,1,1,0-.667c.964,0,2.307-1.357,2.744-1.88a.333.333,0,0,1,.512.427C98.258,19.733,96.63,21.636,95.182,21.636Z" transform="translate(-88.179 -17.636)"/>
    <path id="Path_2741" data-name="Path 2741" class="cls-1" d="M88.955,77.135h-8a.333.333,0,0,1-.333-.333V71.468a.333.333,0,0,1,.333-.333h8a.333.333,0,0,1,.333.333V76.8A.333.333,0,0,1,88.955,77.135Zm-7.667-.667h7.333V71.8H81.289Z" transform="translate(-74.952 -66.135)"/>
    <path id="Path_2742" data-name="Path 2742" class="cls-1" d="M106,93.437h-1.333a.333.333,0,0,1-.333-.333V90.437a.333.333,0,0,1,.333-.333H106a.333.333,0,0,1,.333.333V93.1A.333.333,0,0,1,106,93.437Zm-1-.667h.667v-2H105Z" transform="translate(-96.998 -83.771)"/>
    <path id="Path_2743" data-name="Path 2743" class="cls-1" d="M153.424,93.437H152.09a.333.333,0,0,1-.333-.333V90.437a.333.333,0,0,1,.333-.333h1.333a.333.333,0,0,1,.333.333V93.1A.333.333,0,0,1,153.424,93.437Zm-1-.667h.667v-2h-.667Z" transform="translate(-141.087 -83.771)"/>
    <path id="Path_2744" data-name="Path 2744" class="cls-1" d="M6,101.589H.336A.333.333,0,0,1,0,101.256V99.922a.333.333,0,0,1,.333-.333H6a.333.333,0,0,1,.333.333v1.333A.333.333,0,0,1,6,101.589ZM.67,100.922h5v-.667h-5Z" transform="translate(0 -92.589)"/>
    <path id="Path_2745" data-name="Path 2745" class="cls-1" d="M200.438,101.589h-5.667a.333.333,0,0,1-.333-.333V99.922a.333.333,0,0,1,.333-.333h5.667a.333.333,0,0,1,.333.333v1.333A.333.333,0,0,1,200.438,101.589Zm-5.333-.667h5v-.667h-5Z" transform="translate(-180.768 -92.589)"/>
    <path id="Path_2746" data-name="Path 2746" class="cls-1" d="M82.622,109.741H80.955a.333.333,0,0,1,0-.667h1.667a.333.333,0,0,1,0,.667Z" transform="translate(-74.952 -101.407)"/>
    <path id="Path_2747" data-name="Path 2747" class="cls-1" d="M125.636,109.741h-2a.333.333,0,0,1,0-.667h2a.333.333,0,1,1,0,.667Z" transform="translate(-114.633 -101.407)"/>
    <path id="Path_2748" data-name="Path 2748" class="cls-1" d="M172.726,109.741h-1.667a.333.333,0,1,1,0-.667h1.667a.333.333,0,0,1,0,.667Z" transform="translate(-158.723 -101.407)"/>
    <path id="Path_2749" data-name="Path 2749" class="cls-1" d="M41.169,20a.769.769,0,0,1-.181-.022.743.743,0,0,1-.537-.52c-.673-2.4-2.272-6.459-4-6.459s-3.322,4.06-3.995,6.459a.744.744,0,0,1-.537.52.728.728,0,0,1-.71-.207c-1.558-1.644-1.431-4.978-1.424-5.119a13.433,13.433,0,0,1,.574-3.384A2.458,2.458,0,0,0,30,9.174q-.1-.141-.19-.281l-.024-.039a.354.354,0,0,1,0-.343.334.334,0,0,1,.282-.177h2.062V7.667H29.384a.333.333,0,0,1-.31-.211,8.862,8.862,0,0,1-.618-3.276V3.333C28.456.7,31.291,0,32.789,0a5.913,5.913,0,0,1,3.667,1.226A5.913,5.913,0,0,1,40.123,0c1.5,0,4.333.7,4.333,3.333V4.18a8.855,8.855,0,0,1-.618,3.276.332.332,0,0,1-.31.211H40.789v.667h2.062a.334.334,0,0,1,.281.513l-.028.046q-.091.141-.19.282a2.456,2.456,0,0,0-.367,2.095,13.46,13.46,0,0,1,.575,3.4c.006.127.133,3.461-1.425,5.1a.723.723,0,0,1-.529.229Zm-4.713-7.667c2.494,0,4.179,5.316,4.637,6.945a.074.074,0,0,0,.055.052.064.064,0,0,0,.066-.018c1.366-1.441,1.244-4.6,1.242-4.632a12.842,12.842,0,0,0-.55-3.23A3.113,3.113,0,0,1,42.233,9H40.456a.333.333,0,0,1-.333-.333V7.334A.333.333,0,0,1,40.456,7H43.3a8.209,8.209,0,0,0,.491-2.82V3.334C43.789.7,40.272.667,40.122.667A5.173,5.173,0,0,0,36.691,1.9a.334.334,0,0,1-.471,0A5.174,5.174,0,0,0,32.789.667c-.149,0-3.667.038-3.667,2.667v.847A8.209,8.209,0,0,0,29.614,7h2.842a.333.333,0,0,1,.333.333V8.667A.333.333,0,0,1,32.456,9H30.679a3.111,3.111,0,0,1,.327,2.451,12.821,12.821,0,0,0-.55,3.216c0,.046-.121,3.208,1.242,4.646a.065.065,0,0,0,.066.018.073.073,0,0,0,.055-.052C32.277,17.649,33.962,12.333,36.456,12.333Z" transform="translate(-26.453)"/>
  </g>
</svg>
