<svg xmlns="http://www.w3.org/2000/svg" width="56" height="56" viewBox="0 0 56 56">
  <defs>
    <style>
      .cls-1 {
        fill: #fff;
      }
    </style>
  </defs>
  <g id="tooth-extraction" transform="translate(-32 -34.572)">
    <path id="Path_1980" data-name="Path 1980" class="cls-1" d="M113.744,36.6a1.015,1.015,0,1,0-1.015-1.015A1.015,1.015,0,0,0,113.744,36.6Z" transform="translate(-61.573 0)"/>
    <path id="Path_1981" data-name="Path 1981" class="cls-1" d="M48.949,65.719a.949.949,0,0,0,.949-.949v-1.9a.949.949,0,1,0-1.9,0v1.9A.949.949,0,0,0,48.949,65.719Z" transform="translate(-12.203 -20.86)"/>
    <path id="Path_1982" data-name="Path 1982" class="cls-1" d="M49.9,88.769v-1.9a.949.949,0,0,0-1.9,0v1.9a.949.949,0,0,0,1.9,0Z" transform="translate(-12.203 -38.873)"/>
    <path id="Path_1983" data-name="Path 1983" class="cls-1" d="M35.8,78.871a.949.949,0,0,0-.949-.949h-1.9a.949.949,0,1,0,0,1.9h1.9A.949.949,0,0,0,35.8,78.871Z" transform="translate(0 -32.826)"/>
    <path id="Path_1984" data-name="Path 1984" class="cls-1" d="M56.949,79.82h1.9a.949.949,0,0,0,0-1.9h-1.9a.949.949,0,0,0,0,1.9Z" transform="translate(-18.305 -32.826)"/>
    <path id="Path_1985" data-name="Path 1985" class="cls-1" d="M243.322,37.922a3.322,3.322,0,1,0,3.322,3.322A3.326,3.326,0,0,0,243.322,37.922Zm0,4.746a1.424,1.424,0,1,1,1.424-1.424A1.425,1.425,0,0,1,243.322,42.668Z" transform="translate(-158.644 -2.555)"/>
    <path id="Path_1986" data-name="Path 1986" class="cls-1" d="M253.744,126.572a1.015,1.015,0,1,0,1.015,1.015A1.015,1.015,0,0,0,253.744,126.572Z" transform="translate(-168.353 -69.664)"/>
    <path id="Path_1987" data-name="Path 1987" class="cls-1" d="M134.688,69.144a7.811,7.811,0,0,0-5.059-1.506,7.805,7.805,0,0,0-13.215-.82,7.693,7.693,0,0,0-1.27,5.973,5.392,5.392,0,0,1,.07,1.9,10.857,10.857,0,0,1-.835,3.132,21.063,21.063,0,0,0-2.694,7.137,2.772,2.772,0,0,0,1.43,2.752,2.814,2.814,0,0,0,3.83-1.076l3-5.365a1.822,1.822,0,1,1,3.156,1.764l-3,5.365a2.812,2.812,0,0,0,1.091,3.826,2.858,2.858,0,0,0,1.4.368,2.714,2.714,0,0,0,1.7-.591,21.069,21.069,0,0,0,4.666-6.036,10.83,10.83,0,0,1,2.23-2.353,5.456,5.456,0,0,1,1.648-.933,7.694,7.694,0,0,0,4.423-4.213A7.808,7.808,0,0,0,134.688,69.144Zm.821,8.566a5.811,5.811,0,0,1-3.34,3.184,7.328,7.328,0,0,0-2.219,1.268,12.158,12.158,0,0,0-2.65,2.861,19.575,19.575,0,0,1-4.2,5.489.894.894,0,0,1-.984.051.92.92,0,0,1-.439-.552.9.9,0,0,1,.08-.69l3-5.365a3.97,3.97,0,0,0-1.228-5.212,1.022,1.022,0,0,0-.16-.089,4.046,4.046,0,0,0-1.624-.342,3.949,3.949,0,0,0-3.458,2.029l-3,5.365a.9.9,0,0,1-.546.429.923.923,0,0,1-.7-.084.892.892,0,0,1-.472-.865,19.588,19.588,0,0,1,2.473-6.452,12.155,12.155,0,0,0,1.048-3.756,7.356,7.356,0,0,0-.084-2.556,5.809,5.809,0,0,1,.961-4.512,5.907,5.907,0,0,1,10.171.99.945.945,0,0,0,.4.433l.217.121a.966.966,0,0,0,.58.114,5.9,5.9,0,0,1,6.174,8.141Z" transform="translate(-60.761 -22.1)"/>
    <path id="Path_1988" data-name="Path 1988" class="cls-1" d="M96.029,187.432H87.651a.948.948,0,0,0-.739.353l-.119.156a7.345,7.345,0,0,0-1.321,2.19,12.152,12.152,0,0,0-.917,3.789,19.628,19.628,0,0,1-.986,6.839.9.9,0,0,1-.836.525.916.916,0,0,1-.92-.909v-6.146a3.97,3.97,0,0,0-3.614-3.951.879.879,0,0,0-.183,0,3.97,3.97,0,0,0-3.614,3.951v6.146a.916.916,0,0,1-.92.909.894.894,0,0,1-.834-.525,19.564,19.564,0,0,1-.987-6.839,12.15,12.15,0,0,0-.918-3.789,7.581,7.581,0,0,0-1.363-2.248c-.005-.007-.063-.084-.07-.091a.949.949,0,0,0-.744-.361h-7.69a.949.949,0,0,0-.949.949V204.99a.949.949,0,0,0,.949.949H96.029a.949.949,0,0,0,.949-.949V188.381A.949.949,0,0,0,96.029,187.432Zm-.949,16.609H61.824v-14.71h6.284a5.245,5.245,0,0,1,.854,1.461,10.894,10.894,0,0,1,.8,3.141,21.052,21.052,0,0,0,1.128,7.546,2.772,2.772,0,0,0,2.592,1.7,2.816,2.816,0,0,0,2.819-2.808v-6.146a1.822,1.822,0,1,1,3.615,0v6.146a2.816,2.816,0,0,0,2.819,2.808,2.776,2.776,0,0,0,2.593-1.7,21.108,21.108,0,0,0,1.128-7.546,10.858,10.858,0,0,1,.8-3.14,5.335,5.335,0,0,1,.855-1.462H95.08v14.71Z" transform="translate(-21.3 -115.367)"/>
    <path id="Path_1989" data-name="Path 1989" class="cls-1" d="M52.189,138.3a.948.948,0,0,0,.19,1.329l3.8,2.847a.949.949,0,1,0,1.138-1.518l-3.8-2.847a.949.949,0,0,0-1.328.19Z" transform="translate(-15.254 -78.227)"/>
    <path id="Path_1990" data-name="Path 1990" class="cls-1" d="M48.686,167.322a.951.951,0,0,0-1.074-.805l-4.7.671a.949.949,0,0,0,.133,1.889.968.968,0,0,0,.135-.01l4.7-.671A.949.949,0,0,0,48.686,167.322Z" transform="translate(-7.703 -99.896)"/>
    <path id="Path_1991" data-name="Path 1991" class="cls-1" d="M85.4,130.609a.975.975,0,0,0,.135.01.949.949,0,0,0,.939-.815l.671-4.7a.949.949,0,0,0-1.88-.269l-.671,4.7a.949.949,0,0,0,.806,1.074Z" transform="translate(-40.107 -67.687)"/>
  </g>
</svg>
