<svg xmlns="http://www.w3.org/2000/svg" width="56" height="56" viewBox="0 0 56 56">
  <defs>
    <style>
      .cls-1 {
        fill: #444f5e;
      }
    </style>
  </defs>
  <path id="dental" class="cls-1" d="M28.023,0c-9.684,0-28,1.364-28,6.528v7.46a1.858,1.858,0,0,0,.933,1.606v1.192a2.8,2.8,0,0,0,2.8,2.8H4.861a2.8,2.8,0,0,0,2.628,1.865h2.8a2.772,2.772,0,0,0,1.373-.373,2.8,2.8,0,0,0,2.36,1.305h3.733a2.769,2.769,0,0,0,1.373-.373,2.8,2.8,0,0,0,2.36,1.305h4.667a2.783,2.783,0,0,0,1.866-.727,2.783,2.783,0,0,0,.808.516C22.717,25.483,15.194,30.529,10.3,34.395,3.971,39.378.356,44.516.116,48.872a.954.954,0,0,0-.01.117v.063a7.082,7.082,0,0,0,1.223,4.4v.012a1.186,1.186,0,0,0,.143.18c.008.01.017.016.026.026l.022.02a7.192,7.192,0,0,0,3.948,2.133A9.369,9.369,0,0,0,7.324,56c4.072,0,9.226-2.32,14.76-6.685,6.386-5.031,13.671-12.193,16.673-17.609h.113A3.232,3.232,0,0,0,42.1,28.479V22.373a2.792,2.792,0,0,0,2.285-1.3,2.775,2.775,0,0,0,1.373.373h2.8a2.8,2.8,0,0,0,2.628-1.865H52.29a2.8,2.8,0,0,0,2.8-2.8V15.594a1.859,1.859,0,0,0,.933-1.606V6.528c0-5.163-18.316-6.528-28-6.528Zm0,1.865c16.909,0,26.133,3.077,26.133,4.663v5.527a2.4,2.4,0,0,0-1.658-.623,2.777,2.777,0,0,0-1.664.559,3.641,3.641,0,0,0-3.314-1.841,4.537,4.537,0,0,0-3.346,1.483,4,4,0,0,0-3.607-1.9,5.111,5.111,0,0,0-3.594,1.492c-.093.093-.162.2-.246.3a4.388,4.388,0,0,0-4.037-2.2,5.607,5.607,0,0,0-3.968,1.639,5.706,5.706,0,0,0-.7.863,5.6,5.6,0,0,0-4.663-2.5,4.388,4.388,0,0,0-4.029,2.189,5.071,5.071,0,0,0-3.852-1.772,4,4,0,0,0-3.6,1.895A4.538,4.538,0,0,0,8.53,10.154,3.641,3.641,0,0,0,5.212,12a2.779,2.779,0,0,0-1.665-.559,2.406,2.406,0,0,0-1.658.619V6.528c0-1.585,9.224-4.663,26.133-4.663ZM35.49,15.013A6.629,6.629,0,0,0,29.9,21.448H29.89a.933.933,0,0,1-.933-.933V14.921a3.716,3.716,0,0,1,3.733-3.73,2.673,2.673,0,0,1,2.8,2.8ZM33.119,31.706h.265A132.442,132.442,0,0,1,20.325,43.139c-5.259,4.149-10.08,6.341-13.72,6.282.789-3.556,4.043-7.732,9.3-11.882A133.192,133.192,0,0,1,29.89,27.6v.883a3.232,3.232,0,0,0,3.229,3.227ZM2.823,16.785V14.3c0-.167.034-1,.725-1a1.367,1.367,0,0,1,1.142,1.486v2.936H3.756a.933.933,0,0,1-.933-.933Zm7.467,2.8h-2.8a.933.933,0,0,1-.933-.933V13.988a1.853,1.853,0,0,1,1.97-1.969,2.7,2.7,0,0,1,2.7,2.694V18.65a.933.933,0,0,1-.933.933Zm7.466.933H14.023a.933.933,0,0,1-.933-.933V13.988A2.276,2.276,0,0,1,15.475,11.6a3.216,3.216,0,0,1,3.214,3.212v4.766a.933.933,0,0,1-.933.933Zm8.4.933H21.49a.933.933,0,0,1-.933-.933V13.988a2.672,2.672,0,0,1,2.8-2.8,3.732,3.732,0,0,1,3.733,3.73v5.595a.933.933,0,0,1-.933.933Zm-14.7,14.411c6.367-5.03,13.422-9.288,18.434-11.166v.756A125.339,125.339,0,0,0,14.742,36.079c-5.734,4.523-9.16,9.021-10,13.08a5.26,5.26,0,0,1-2.557-1.591c.847-3.524,4.074-7.62,9.268-11.709ZM20.93,47.853c-5.973,4.714-11.33,6.9-15.153,6.141a5.345,5.345,0,0,1-2.894-1.576A5.1,5.1,0,0,1,2,49.9,7.56,7.56,0,0,0,5.387,51.2h.094c4.293.546,9.82-1.732,16-6.61,8.35-6.587,13.72-11.586,16.357-15.241-2.012,4.979-9.818,12.907-16.911,18.5Zm19.3-19.373a1.354,1.354,0,0,1-.467,1.02c.056-.162.126-.331.171-.488A1.745,1.745,0,0,0,36.793,27.6a22.536,22.536,0,0,1-1.713,2.245H33.12a1.364,1.364,0,0,1-1.363-1.361V21.588a4.786,4.786,0,0,1,4.685-4.793.577.577,0,0,0,.122-.009,3.5,3.5,0,0,1,3.668,3.655Zm2.725-8.9a.926.926,0,0,1-.859.917v-.059a5.274,5.274,0,0,0-4.741-5.472v-.151a3.207,3.207,0,0,1,3.21-3.217,2.281,2.281,0,0,1,2.389,2.387Zm6.533-.933a.933.933,0,0,1-.933.933h-2.8a.933.933,0,0,1-.933-.933V14.714a2.7,2.7,0,0,1,2.7-2.694,1.854,1.854,0,0,1,1.97,1.969Zm3.733-1.865a.933.933,0,0,1-.933.933h-.933V14.783A1.367,1.367,0,0,1,52.5,13.3c.691,0,.725.835.725,1Zm0,0" transform="translate(-0.023)"/>
</svg>
