<svg xmlns="http://www.w3.org/2000/svg" width="56" height="56.001" viewBox="0 0 56 56.001">
  <defs>
    <style>
      .cls-1 {
        fill: #444f5e;
      }
    </style>
  </defs>
  <g id="dentist_5_" data-name="dentist (5)" transform="translate(-0.003)">
    <path id="Path_2006" data-name="Path 2006" class="cls-1" d="M95.782,26.436a.933.933,0,1,1,0-1.867c2.7,0,6.46-3.8,7.683-5.265a.933.933,0,0,1,1.434,1.2C104.393,21.107,99.836,26.436,95.782,26.436Z" transform="translate(-76.179 -15.236)"/>
    <path id="Path_2007" data-name="Path 2007" class="cls-1" d="M103.955,87.935h-22.4A.934.934,0,0,1,80.622,87V72.068a.934.934,0,0,1,.933-.933h22.4a.934.934,0,0,1,.933.933V87A.934.934,0,0,1,103.955,87.935ZM82.489,86.068h20.533V73H82.489Z" transform="translate(-64.752 -57.135)"/>
    <path id="Path_2008" data-name="Path 2008" class="cls-1" d="M109,99.437h-3.733a.934.934,0,0,1-.933-.933V91.037a.934.934,0,0,1,.933-.933H109a.934.934,0,0,1,.933.933V98.5A.934.934,0,0,1,109,99.437Zm-2.8-1.867h1.867v-5.6H106.2Z" transform="translate(-83.798 -72.371)"/>
    <path id="Path_2009" data-name="Path 2009" class="cls-1" d="M156.424,99.437H152.69a.934.934,0,0,1-.933-.933V91.037a.934.934,0,0,1,.933-.933h3.733a.934.934,0,0,1,.933.933V98.5A.934.934,0,0,1,156.424,99.437Zm-2.8-1.867h1.867v-5.6h-1.867Z" transform="translate(-121.887 -72.371)"/>
    <path id="Path_2010" data-name="Path 2010" class="cls-1" d="M16.8,105.189H.936A.934.934,0,0,1,0,104.256v-3.733a.934.934,0,0,1,.933-.933H16.8a.934.934,0,0,1,.933.933v3.733A.934.934,0,0,1,16.8,105.189ZM1.87,103.322h14v-1.867h-14Z" transform="translate(0 -79.989)"/>
    <path id="Path_2011" data-name="Path 2011" class="cls-1" d="M211.238,105.189H195.371a.934.934,0,0,1-.933-.933v-3.733a.934.934,0,0,1,.933-.933h15.867a.934.934,0,0,1,.933.933v3.733A.934.934,0,0,1,211.238,105.189ZM196.3,103.322h14v-1.867h-14Z" transform="translate(-156.168 -79.989)"/>
    <path id="Path_2012" data-name="Path 2012" class="cls-1" d="M86.222,110.941H81.555a.933.933,0,1,1,0-1.867h4.667a.933.933,0,1,1,0,1.867Z" transform="translate(-64.752 -87.607)"/>
    <path id="Path_2013" data-name="Path 2013" class="cls-1" d="M129.836,110.941h-5.6a.933.933,0,0,1,0-1.867h5.6a.933.933,0,1,1,0,1.867Z" transform="translate(-99.033 -87.607)"/>
    <path id="Path_2014" data-name="Path 2014" class="cls-1" d="M176.326,110.941h-4.667a.933.933,0,1,1,0-1.867h4.667a.933.933,0,0,1,0,1.867Z" transform="translate(-137.123 -87.607)"/>
    <path id="Path_2015" data-name="Path 2015" class="cls-1" d="M64.053,56a2.154,2.154,0,0,1-.508-.062,2.081,2.081,0,0,1-1.5-1.455C60.157,47.768,55.68,36.4,50.856,36.4s-9.3,11.368-11.185,18.084a2.083,2.083,0,0,1-1.5,1.455,2.039,2.039,0,0,1-1.988-.58c-4.362-4.6-4.006-13.938-3.988-14.333A37.612,37.612,0,0,1,33.8,31.551a6.883,6.883,0,0,0-1.027-5.865q-.277-.394-.532-.787l-.066-.11a.99.99,0,0,1-.014-.961.934.934,0,0,1,.789-.495h5.774V21.466H31.053a.933.933,0,0,1-.868-.59,24.814,24.814,0,0,1-1.73-9.172V9.333C28.456,1.951,36.393,0,40.589,0A16.556,16.556,0,0,1,50.856,3.433,16.557,16.557,0,0,1,61.123,0c4.2,0,12.133,1.951,12.133,9.333V11.7a24.8,24.8,0,0,1-1.73,9.172.931.931,0,0,1-.867.59H62.989v1.867h5.774a.934.934,0,0,1,.787,1.436l-.078.129q-.255.395-.533.789a6.877,6.877,0,0,0-1.027,5.865,37.687,37.687,0,0,1,1.61,9.514c.017.355.372,9.691-3.989,14.293a2.024,2.024,0,0,1-1.48.641Zm-13.2-21.468c6.982,0,11.7,14.885,12.983,19.447a.206.206,0,0,0,.154.147.178.178,0,0,0,.185-.05C68,50.043,67.66,41.2,67.656,41.108a35.956,35.956,0,0,0-1.54-9.045,8.715,8.715,0,0,1,.915-6.863H62.056a.934.934,0,0,1-.933-.933V20.534a.934.934,0,0,1,.933-.933h7.959a22.985,22.985,0,0,0,1.375-7.9V9.334c0-7.361-9.849-7.466-10.268-7.467a14.486,14.486,0,0,0-9.608,3.462.935.935,0,0,1-1.318,0,14.488,14.488,0,0,0-9.607-3.46c-.418,0-10.267.105-10.267,7.467v2.372A22.985,22.985,0,0,0,31.7,19.6h7.959a.934.934,0,0,1,.933.933v3.733a.934.934,0,0,1-.933.933H34.681a8.711,8.711,0,0,1,.915,6.863,35.9,35.9,0,0,0-1.539,9c0,.13-.338,8.983,3.478,13.009a.183.183,0,0,0,.186.051.2.2,0,0,0,.154-.147C39.154,49.418,43.874,34.534,50.856,34.534Z" transform="translate(-22.853)"/>
  </g>
</svg>
