<svg xmlns="http://www.w3.org/2000/svg" width="20" height="20" viewBox="0 0 20 20">
  <defs>
    <style>
      .cls-1 {
        fill: #444f5e;
      }
    </style>
  </defs>
  <g id="dental" transform="translate(0 -1.208)">
    <g id="Group_10196" data-name="Group 10196" transform="translate(0 5.079)">
      <g id="Group_10195" data-name="Group 10195">
        <path id="Path_2725" data-name="Path 2725" class="cls-1" d="M9.747,99.086l-2.65-.53v-.7H5.806v-.645H2.581a2.58,2.58,0,0,0-.323,5.139v8.134a.922.922,0,0,0,.921.921h.047v1.29H2.581v.645H5.806v-.645H5.161V111.4h.047a.921.921,0,0,0,.412-1.744l-.781-.391v-.312l.968-.968v-3.493l-.968-.968v-1.157h.968v-.645H7.1v-.7l2.65-.53a.716.716,0,0,0,0-1.4ZM4.516,112.692H3.871V111.4h.645Zm.815-2.457a.275.275,0,0,1-.123.522H3.179a.276.276,0,0,1-.275-.275v-8.112h1.29v1.613H3.548v.645h.645v.645H3.548v.645h.645v.645H3.548v.645h.645v.645H3.548v.645h.645v1.167Zm-.17-5.474v2.959l-.323.323v-3.6Zm1.29-3.682H5.806v-.645H5.161v1.29H2.581a1.935,1.935,0,0,1,0-3.871H5.161v1.935h.645V98.5h.645ZM9.62,99.858l-2.524.5V99.214l2.524.5a.071.071,0,0,1,0,.139Z" transform="translate(0 -97.208)"/>
      </g>
    </g>
    <g id="Group_10198" data-name="Group 10198" transform="translate(6.786 1.208)">
      <g id="Group_10197" data-name="Group 10197">
        <path id="Path_2726" data-name="Path 2726" class="cls-1" d="M172.043,13.456l-1.207,4.526h13.1l-1.207-4.526a1.292,1.292,0,0,0-1.247-.958h-.6a10.63,10.63,0,0,1,1.133-2.107,10.2,10.2,0,0,0,1.821-5.831,3.356,3.356,0,0,0-3.353-3.353,3.454,3.454,0,0,0-1.93.612,2.1,2.1,0,0,1-2.338,0,3.454,3.454,0,0,0-1.93-.612,3.353,3.353,0,0,0-3.118,2.125l-.034-.028-.414.495,1.5,1.26,1.108-.928.35,1.4,1.443-.1-.539,1.34,1.224.768-1.224.768.539,1.341-1.443-.1-.35,1.4-1.108-.928-1.5,1.26.414.495,1.089-.913,1.484,1.244,0-.015c.06.134.118.268.173.4h-.595A1.292,1.292,0,0,0,172.043,13.456Zm2.134-3.225,1.93.133-.722-1.8,1.639-1.028-1.639-1.028.722-1.795-1.93.133-.47-1.878-1.484,1.244-.527-.442a2.706,2.706,0,0,1,2.589-1.923,2.811,2.811,0,0,1,1.569.5,2.688,2.688,0,0,0,1.53.466,2.69,2.69,0,0,0,1.53-.466,2.81,2.81,0,0,1,1.569-.5,2.71,2.71,0,0,1,2.707,2.707,9.557,9.557,0,0,1-1.707,5.464,11.263,11.263,0,0,0-1.673,3.693l-.345,1.38a.4.4,0,0,1-.792-.1V10.885a1.29,1.29,0,1,0-2.581,0V15a.4.4,0,0,1-.792.1l-.345-1.38a11.3,11.3,0,0,0-1-2.594Zm3.853.655V12.5h-1.29V10.885a.645.645,0,0,1,1.29,0Zm-3.911,2.258c.079.241.151.484.213.73l.345,1.38A1.047,1.047,0,0,0,176.739,15V13.143h1.29V15a1.047,1.047,0,0,0,2.063.254l.345-1.38c.062-.247.134-.489.213-.73h.829a.646.646,0,0,1,.623.479l.991,3.715H171.675l.991-3.715a.645.645,0,0,1,.623-.479Z" transform="translate(-170.72 -1.208)"/>
      </g>
    </g>
    <g id="Group_10200" data-name="Group 10200" transform="translate(11.227 2.889)">
      <g id="Group_10199" data-name="Group 10199">
        <path id="Path_2727" data-name="Path 2727" class="cls-1" d="M284.31,42.9a3.388,3.388,0,0,1-3.781,0l-.361.535a4.033,4.033,0,0,0,4.5,0Z" transform="translate(-280.168 -42.904)"/>
      </g>
    </g>
  </g>
</svg>
