<svg xmlns="http://www.w3.org/2000/svg" width="56" height="56" viewBox="0 0 56 56">
  <defs>
    <style>
      .cls-1 {
        fill: #444f5e;
      }
    </style>
  </defs>
  <g id="_002---Teeth-Implant-Assembly" data-name="002---Teeth-Implant-Assembly" transform="translate(-0.996)">
    <path id="Shape" class="cls-1" d="M37.4,42H17.24A2.079,2.079,0,0,0,15,43.867c0,10.967,0,10.369.09,10.621s-.112,0,4.065,3.491a3.727,3.727,0,0,0,2.374.821H33.107a3.727,3.727,0,0,0,2.374-.821l3.83-3.183a.9.9,0,0,0,.325-.663V43.867A2.079,2.079,0,0,0,37.4,42Zm0,6.953c-1.792.933-8.768,4.023-20.157,4.228V48.533c10.269-.168,17.1-2.576,20.157-3.939Zm0,2.156V53.2H31.361A39.73,39.73,0,0,0,37.4,51.109Zm-3.359-7.243a52.775,52.775,0,0,1-16.8,2.8v-2.8Zm-.885,13.067H21.529c-.616,0-.694-.2-2.71-1.867h17c-2.049,1.708-2.105,1.867-2.71,1.867Z" transform="translate(1.678 -2.8)"/>
    <path id="Shape-2" data-name="Shape" class="cls-1" d="M15.24,27.067v1.867a2.079,2.079,0,0,0,2.24,1.867h2.24v4.667a2.079,2.079,0,0,0,2.24,1.867h11.2a2.079,2.079,0,0,0,2.24-1.867V30.8h2.24a2.079,2.079,0,0,0,2.24-1.867V27.067a2.079,2.079,0,0,0,2.24-1.867V23.333a2.079,2.079,0,0,0-2.24-1.867h-.482l-2.049-2.8a2.277,2.277,0,0,0,1.613-.933A12.069,12.069,0,0,0,41,11.2C41,5.787,38.935,0,33.157,0c-3.763,0-4.311,2.8-5.6,2.8S25.721,0,21.959,0C16.18,0,14.12,5.787,14.12,11.2a12.069,12.069,0,0,0,2.038,6.533,2.277,2.277,0,0,0,1.613.933l-2.049,2.8H15.24A2.079,2.079,0,0,0,13,23.333V25.2a2.079,2.079,0,0,0,2.24,1.867Zm17.917,8.4h-11.2V30.8h11.2Zm4.479-6.533H17.479V27.067H37.636ZM16.359,11.2c0-1.559.269-9.333,5.6-9.333a3.15,3.15,0,0,1,2.564,1.269,3.774,3.774,0,0,0,6.069,0,3.15,3.15,0,0,1,2.564-1.269c5.33,0,5.6,7.775,5.6,9.333A10.6,10.6,0,0,1,37,16.8H18.118A10.6,10.6,0,0,1,16.359,11.2Zm4,7.467h14.4l2.016,2.8H18.342ZM15.24,23.333H39.876V25.2H15.24Z" transform="translate(1.438)"/>
    <path id="Shape-3" data-name="Shape" class="cls-1" d="M46.685,25.729a1.283,1.283,0,0,0,1.59,0l3.359-2.8a.831.831,0,0,0,0-1.325,1.289,1.289,0,0,0-1.59,0L48.6,22.817V12.933a1.138,1.138,0,0,0-2.24,0v9.884L44.915,21.6a1.289,1.289,0,0,0-1.59,0,.831.831,0,0,0,0,1.325Z" transform="translate(5.032 -0.8)"/>
    <path id="Shape-4" data-name="Shape" class="cls-1" d="M4.685,44.729a1.283,1.283,0,0,0,1.59,0l3.359-2.8a.831.831,0,0,0,0-1.325,1.289,1.289,0,0,0-1.59,0L6.6,41.817V31.933A1.039,1.039,0,0,0,5.48,31a1.039,1.039,0,0,0-1.12.933v9.884L2.915,40.6a1.289,1.289,0,0,0-1.59,0,.831.831,0,0,0,0,1.325Z" transform="translate(0 -2.067)"/>
    <path id="Shape-5" data-name="Shape" class="cls-1" d="M19.678,6.71a1.227,1.227,0,0,0,1.489-.439c.2-.336.336-.448.314-.448a.874.874,0,0,0,.538-1.232,1.066,1.066,0,0,0-.631-.487,1.327,1.327,0,0,0-.859.029,2.806,2.806,0,0,0-1.377,1.335.872.872,0,0,0,.526,1.241Z" transform="translate(2.162 -0.27)"/>
    <path id="Shape-6" data-name="Shape" class="cls-1" d="M19.188,13.666a1.23,1.23,0,0,0,.843-.312.836.836,0,0,0,.276-.734,11.741,11.741,0,0,1,0-2.595.831.831,0,0,0-.247-.689A1.2,1.2,0,0,0,19.3,9a1.083,1.083,0,0,0-1.221.84,12.841,12.841,0,0,0,0,3.005,1.068,1.068,0,0,0,1.109.821Z" transform="translate(2.036 -0.6)"/>
  </g>
</svg>
