<svg xmlns="http://www.w3.org/2000/svg" width="20" height="20" viewBox="0 0 20 20">
  <defs>
    <style>
      .cls-1 {
        fill: #444f5e;
      }
    </style>
  </defs>
  <g id="decay" transform="translate(-2 -2)">
    <path id="Path_3052" data-name="Path 3052" class="cls-1" d="M33.667,32H32.333A1.818,1.818,0,0,0,31,32.98,1.818,1.818,0,0,0,29.667,32H28.333A2.336,2.336,0,0,0,26,34.333v.293a8.318,8.318,0,0,0,.477,2.78l1.393,3.94a.971.971,0,0,0,1.87-.13l.95-2.477a.333.333,0,0,1,.62,0l.95,2.477a.972.972,0,0,0,1.87.133l1.393-3.943A8.318,8.318,0,0,0,36,34.627v-.293A2.336,2.336,0,0,0,33.667,32Zm1.667,2.627a7.6,7.6,0,0,1-.44,2.557L33.5,41.13a.306.306,0,0,1-.287.2.3.3,0,0,1-.3-.257.533.533,0,0,0-.017-.07L31.933,38.5a1,1,0,0,0-1.867,0L29.1,41.007a.533.533,0,0,0-.017.07.3.3,0,0,1-.587.05l-1.393-3.943a7.6,7.6,0,0,1-.44-2.557v-.293a1.667,1.667,0,0,1,1.667-1.667h1.333c.353,0,.823.677,1.03,1.137a.333.333,0,0,0,.607,0c.207-.46.677-1.137,1.03-1.137h1.333a1.667,1.667,0,0,1,1.667,1.667Z" transform="translate(-16 -20)"/>
    <path id="Path_3053" data-name="Path 3053" class="cls-1" d="M48.333,36H48v.667h.333a.333.333,0,0,1,.333.333v.333h.667V37A1,1,0,0,0,48.333,36Z" transform="translate(-30.667 -22.667)"/>
    <path id="Path_3054" data-name="Path 3054" class="cls-1" d="M37.667,38.667c-.373,0-1-.087-1-.667H36c0,.615.437,1.333,1.667,1.333s1.667-.718,1.667-1.333h-.667C38.667,38.58,38.04,38.667,37.667,38.667Z" transform="translate(-22.667 -24)"/>
    <path id="Path_3055" data-name="Path 3055" class="cls-1" d="M33.667,8.333h.667A2.336,2.336,0,0,0,32,6v.667a1.669,1.669,0,0,1,1.667,1.667Z" transform="translate(-20 -2.667)"/>
    <path id="Path_3056" data-name="Path 3056" class="cls-1" d="M12,2A3.664,3.664,0,0,0,8.8,7.453L7.757,8.5,7.523,8.26a1.026,1.026,0,0,0-1.417,0,.988.988,0,0,0-.287.653.987.987,0,0,0-.943.953.981.981,0,0,0-.653.28,1,1,0,0,0,0,1.413L2.1,13.683a.344.344,0,0,0-.1.237v2.827a.329.329,0,0,0,.207.307.279.279,0,0,0,.127.027.336.336,0,0,0,.237-.1l3.537-3.54a1,1,0,0,0,1.7-.653.988.988,0,0,0,.943-.943.994.994,0,0,0,.653-1.7L9.17,9.91l1.043-1.043A3.667,3.667,0,1,0,12,2ZM2.667,15.943V14.057L4.693,12.03l.943.943Zm4.383-2.97a.338.338,0,0,1-.47,0L4.693,11.087a.333.333,0,0,1,0-.47.338.338,0,0,1,.47,0L7.05,12.5A.333.333,0,0,1,7.05,12.973Zm.943-.943a.336.336,0,0,1-.473,0L5.637,10.143a.317.317,0,0,1-.1-.233.333.333,0,0,1,.567-.237L7.993,11.56A.333.333,0,0,1,7.993,12.03Zm.943-.943a.336.336,0,0,1-.473,0L6.58,9.2a.33.33,0,0,1,0-.473.341.341,0,0,1,.47,0l1.887,1.887A.333.333,0,0,1,8.937,11.087ZM8.7,9.437l-.47-.47.953-.957a3.528,3.528,0,0,0,.473.473Zm3.3-.77a3,3,0,1,1,3-3A3,3,0,0,1,12,8.667Z" transform="translate(0 0)"/>
    <path id="Path_3057" data-name="Path 3057" class="cls-1" d="M48.667,25h.667v-.667H50v-.667h-.667V23h-.667v.667H48v.667h.667Z" transform="translate(-30.667 -14)"/>
    <path id="Path_3058" data-name="Path 3058" class="cls-1" d="M24.333,56h-.667v.667H23v.667h.667V58h.667v-.667H25v-.667h-.667Z" transform="translate(-14 -36)"/>
    <path id="Path_3059" data-name="Path 3059" class="cls-1" d="M17.333,47h-.667v.667H16v.667h.667V49h.667v-.667H18v-.667h-.667Z" transform="translate(-9.333 -30)"/>
    <path id="Path_3060" data-name="Path 3060" class="cls-1" d="M58,29.667h-.667V29h-.667v.667H56v.667h.667V31h.667v-.667H58Z" transform="translate(-36 -18)"/>
  </g>
</svg>
