<svg xmlns="http://www.w3.org/2000/svg" width="56" height="56" viewBox="0 0 56 56">
  <defs>
    <style>
      .cls-1 {
        fill: #444f5e;
      }
    </style>
  </defs>
  <g id="dental" transform="translate(0 -1.208)">
    <g id="Group_8877" data-name="Group 8877" transform="translate(0 12.047)">
      <g id="Group_8876" data-name="Group 8876">
        <path id="Path_1940" data-name="Path 1940" class="cls-1" d="M27.292,102.467l-7.421-1.484V99.014H16.258V97.208H7.226a7.223,7.223,0,0,0-.9,14.389v22.775A2.58,2.58,0,0,0,8.9,136.95h.132v3.613H7.226v1.806h9.032v-1.806H14.452V136.95h.132a2.578,2.578,0,0,0,1.153-4.884l-2.188-1.094V130.1l2.71-2.71v-9.78l-2.71-2.71V111.66h2.71v-1.806h3.613v-1.969l7.421-1.484a2.005,2.005,0,0,0,0-3.933Zm-14.647,38.1H10.839V136.95h1.806Zm2.282-6.881a.771.771,0,0,1-.344,1.461H8.9a.773.773,0,0,1-.771-.771V111.66h3.613v4.516H9.935v1.806h1.806v1.806H9.935V121.6h1.806V123.4H9.935v1.806h1.806v1.806H9.935v1.806h1.806v3.268Zm-.476-15.326v8.284l-.9.9V117.453Zm3.613-10.309H16.258V106.24H14.452v3.613H7.226a5.419,5.419,0,1,1,0-10.839h7.226v5.419h1.806v-3.613h1.806Zm8.872-3.418-7.066,1.413v-3.215l7.066,1.413a.2.2,0,0,1,0,.39Z" transform="translate(0 -97.208)"/>
      </g>
    </g>
    <g id="Group_8879" data-name="Group 8879" transform="translate(19.002 1.208)">
      <g id="Group_8878" data-name="Group 8878">
        <path id="Path_1941" data-name="Path 1941" class="cls-1" d="M174.423,35.5l-3.38,12.673h36.675L204.338,35.5a3.618,3.618,0,0,0-3.491-2.682h-1.674a29.762,29.762,0,0,1,3.172-5.9,28.554,28.554,0,0,0,5.1-16.326,9.4,9.4,0,0,0-9.387-9.387,9.672,9.672,0,0,0-5.4,1.713,5.747,5.747,0,0,1-3.273,1,5.747,5.747,0,0,1-3.273-1,9.672,9.672,0,0,0-5.4-1.713,9.388,9.388,0,0,0-8.73,5.95l-.094-.079-1.16,1.385,4.209,3.527,3.1-2.6.981,3.925,4.039-.278-1.509,3.753,3.428,2.15-3.428,2.15,1.509,3.754-4.039-.278-.981,3.925-3.1-2.6-4.209,3.527,1.16,1.385,3.049-2.555,4.156,3.482.011-.042c.168.375.331.751.483,1.133h-1.665A3.618,3.618,0,0,0,174.423,35.5Zm5.976-9.03,5.4.373-2.022-5.026,4.589-2.878-4.589-2.878,2.022-5.026-5.4.372-1.315-5.259-4.155,3.483L173.453,8.4a7.577,7.577,0,0,1,7.25-5.383,7.872,7.872,0,0,1,4.394,1.4,7.527,7.527,0,0,0,4.283,1.305,7.532,7.532,0,0,0,4.284-1.305,7.867,7.867,0,0,1,4.393-1.4,7.589,7.589,0,0,1,7.581,7.581,26.76,26.76,0,0,1-4.779,15.3,31.537,31.537,0,0,0-4.683,10.34L195.21,40.1a1.125,1.125,0,0,1-2.217-.274V28.3a3.613,3.613,0,0,0-7.226,0v11.52a1.126,1.126,0,0,1-2.217.274l-.966-3.865a31.634,31.634,0,0,0-2.809-7.263ZM191.187,28.3v4.516h-3.613V28.3a1.806,1.806,0,0,1,3.613,0Zm-10.951,6.323c.22.674.424,1.354.6,2.043l.966,3.865a2.932,2.932,0,0,0,5.776-.711v-5.2h3.613v5.2a2.932,2.932,0,0,0,5.776.711l.966-3.865c.173-.691.376-1.37.6-2.043h2.321a1.807,1.807,0,0,1,1.745,1.34l2.774,10.4H173.4l2.774-10.4a1.807,1.807,0,0,1,1.745-1.34Z" transform="translate(-170.72 -1.208)"/>
      </g>
    </g>
    <g id="Group_8881" data-name="Group 8881" transform="translate(31.434 5.916)">
      <g id="Group_8880" data-name="Group 8880">
        <path id="Path_1942" data-name="Path 1942" class="cls-1" d="M291.765,42.9a9.486,9.486,0,0,1-10.588,0l-1.01,1.5a11.293,11.293,0,0,0,12.608,0Z" transform="translate(-280.168 -42.904)"/>
      </g>
    </g>
  </g>
</svg>
