<svg xmlns="http://www.w3.org/2000/svg" width="56" height="56" viewBox="0 0 56 56">
  <defs>
    <style>
      .cls-1 {
        fill: #444f5e;
      }
    </style>
  </defs>
  <g id="dental-crown" transform="translate(-0.002 -2.5)">
    <path id="Path_2016" data-name="Path 2016" class="cls-1" d="M55.127,45.5H48a3.619,3.619,0,0,0-3.376-3h-1.82A12.95,12.95,0,0,0,45.5,34.5a.943.943,0,0,0-.875-1H40.252V31.5c0-3.305-2.35-5.992-5.239-6,0,0-.007,0-.011,0h-14c-2.9,0-5.252,2.692-5.252,6V33.5H11.378a.943.943,0,0,0-.875,1A12.96,12.96,0,0,0,13.2,42.5H11.376A3.619,3.619,0,0,0,8,45.5H.877a1.009,1.009,0,0,0,0,2H8.751a.943.943,0,0,0,.875-1,1.89,1.89,0,0,1,1.75-2h2.77l1.611,16.111a39.336,39.336,0,0,1,.084.311,1.023,1.023,0,0,0,.106.181.964.964,0,0,0,.082.118.888.888,0,0,0,.172.133.93.93,0,0,0,.1.068.773.773,0,0,0,.326.075h3.5c2.9,0,5.25-2.691,5.25-6V51.512s0,0,0-.005a2.835,2.835,0,0,1,2.625-3A2.833,2.833,0,0,1,30.628,51.5s0,0,0,.006V55.5c0,3.309,2.355,6,5.25,6h3.5a.776.776,0,0,0,.326-.075.992.992,0,0,0,.1-.068.862.862,0,0,0,.172-.133.9.9,0,0,0,.082-.119.971.971,0,0,0,.106-.179,1.189,1.189,0,0,0,.043-.161.975.975,0,0,0,.041-.151L41.858,44.5h2.77a1.89,1.89,0,0,1,1.75,2,.943.943,0,0,0,.875,1h7.874a1.009,1.009,0,0,0,0-2ZM17.5,31.5a3.781,3.781,0,0,1,3.5-4H34.993l.009,0a3.779,3.779,0,0,1,3.5,4V33.5h-21Zm14.874,24V51.518s0-.006,0-.01c0-2.757-1.963-5-4.375-5s-4.367,2.236-4.374,4.986a.059.059,0,0,0,0,.012V55.5a3.779,3.779,0,0,1-3.5,4H17.407L15.746,42.887v0l0-.018a.9.9,0,0,0-.032-.109,1.054,1.054,0,0,0-.072-.254.936.936,0,0,0-.146-.206.844.844,0,0,0-.062-.088A10.463,10.463,0,0,1,12.3,35.5h4.311c.006,0,.011,0,.018,0s.011,0,.018,0H43.709a10.461,10.461,0,0,1-3.138,6.717,1.015,1.015,0,0,0-.09.126.944.944,0,0,0-.114.161,1.1,1.1,0,0,0-.109.412L38.6,59.5H35.877a3.779,3.779,0,0,1-3.5-4Z" transform="translate(0 -3)"/>
    <path id="Path_2017" data-name="Path 2017" class="cls-1" d="M34.4,2.5A8.521,8.521,0,0,0,28,5.568,8.521,8.521,0,0,0,21.6,2.5c-5.294,0-9.6,5.382-9.6,12v5a.916.916,0,0,0,.8,1H43.2a.916.916,0,0,0,.8-1v-5C44,7.882,39.7,2.5,34.4,2.5Zm8,16H13.6v-4c0-5.513,3.589-10,8-10a7.283,7.283,0,0,1,5.818,3.152.716.716,0,0,0,1.166,0A7.285,7.285,0,0,1,34.4,4.5c4.412,0,8,4.485,8,10Z"/>
    <path id="Path_2018" data-name="Path 2018" class="cls-1" d="M50,22.5a1,1,0,0,0-1,1v4.588l-.254-.254a1,1,0,0,0-1.414,1.414l1.96,1.96a1,1,0,0,0,1.416,0l1.921-1.921a1,1,0,1,0-1.414-1.414L51,28.086V23.5a1,1,0,0,0-1-1Z" transform="translate(-6.472 -1.2)"/>
    <path id="Path_2019" data-name="Path 2019" class="cls-1" d="M11.352,29.246l1.96,1.96a1,1,0,0,0,1.416,0l1.921-1.921a1,1,0,1,0-1.414-1.414l-.215.215V23.5a1,1,0,0,0-2,0v4.588l-.254-.254a1,1,0,0,0-1.414,1.414Z" transform="translate(-1.521 -1.2)"/>
  </g>
</svg>
