<svg id="dentist_1_" data-name="dentist (1)" xmlns="http://www.w3.org/2000/svg" width="56" height="56" viewBox="0 0 56 56">
  <defs>
    <style>
      .cls-1 {
        fill: #444f5e;
      }
    </style>
  </defs>
  <g id="Group_10169" data-name="Group 10169">
    <g id="Group_10168" data-name="Group 10168">
      <path id="Path_2714" data-name="Path 2714" class="cls-1" d="M23.484,11.742A11.742,11.742,0,1,0,9.032,23.156V25.29H7.226V37.935h.9V52.387a3.613,3.613,0,1,0,7.226,0V37.935h.9V25.29H14.452V23.156A11.754,11.754,0,0,0,23.484,11.742ZM13.548,52.387a1.806,1.806,0,0,1-3.613,0V37.935h3.613Zm.9-19.871H12.645v1.806h1.806v1.806H9.032V34.323h1.806V32.516H9.032V30.71h5.419Zm0-3.613H9.032V27.1h5.419ZM10.839,25.29V23.438c.3.023.6.046.9.046s.6-.023.9-.046V25.29Zm.9-3.613a9.935,9.935,0,1,1,9.935-9.935A9.947,9.947,0,0,1,11.742,21.677Z"/>
    </g>
  </g>
  <g id="Group_10171" data-name="Group 10171" transform="translate(7.618 3.613)">
    <g id="Group_10170" data-name="Group 10170">
      <path id="Path_2715" data-name="Path 2715" class="cls-1" d="M71.6,32a8.12,8.12,0,0,0-4.124,1.132l.919,1.555a6.311,6.311,0,0,1,8.646,8.647l1.556.919A8.119,8.119,0,0,0,71.6,32Z" transform="translate(-67.472 -32)"/>
    </g>
  </g>
  <g id="Group_10173" data-name="Group 10173" transform="translate(3.613 7.618)">
    <g id="Group_10172" data-name="Group 10172">
      <path id="Path_2716" data-name="Path 2716" class="cls-1" d="M43.334,77.038a6.311,6.311,0,0,1-8.646-8.647l-1.556-.919A8.119,8.119,0,0,0,44.253,78.593Z" transform="translate(-32 -67.472)"/>
    </g>
  </g>
  <g id="Group_10175" data-name="Group 10175" transform="translate(19.871 14.452)">
    <g id="Group_10174" data-name="Group 10174">
      <path id="Path_2717" data-name="Path 2717" class="cls-1" d="M202.742,128a9.669,9.669,0,0,0-5.4,1.713,5.87,5.87,0,0,1-6.545,0,9.677,9.677,0,0,0-5.4-1.713A9.4,9.4,0,0,0,176,137.387a28.55,28.55,0,0,0,5.1,16.326,29.766,29.766,0,0,1,4.416,9.749l.966,3.866a2.932,2.932,0,0,0,5.777-.711V155.1a1.806,1.806,0,1,1,3.613,0v11.52a2.932,2.932,0,0,0,5.776.711l.966-3.865a29.739,29.739,0,0,1,4.416-9.749,28.549,28.549,0,0,0,5.1-16.327A9.4,9.4,0,0,0,202.742,128Zm2.8,24.685a31.539,31.539,0,0,0-4.682,10.339l-.966,3.865a1.126,1.126,0,0,1-2.218-.273V155.1a3.613,3.613,0,0,0-7.226,0v11.52a1.126,1.126,0,0,1-2.218.273l-.966-3.866a31.519,31.519,0,0,0-4.682-10.339,26.744,26.744,0,0,1-4.779-15.3,7.589,7.589,0,0,1,7.581-7.581,7.876,7.876,0,0,1,4.394,1.4,7.678,7.678,0,0,0,8.566,0,7.872,7.872,0,0,1,4.394-1.4,7.589,7.589,0,0,1,7.581,7.581A26.749,26.749,0,0,1,205.544,152.685Z" transform="translate(-176 -128)"/>
    </g>
  </g>
  <g id="Group_10177" data-name="Group 10177" transform="translate(31.632 19.159)">
    <g id="Group_10176" data-name="Group 10176">
      <path id="Path_2718" data-name="Path 2718" class="cls-1" d="M291.765,169.7a9.485,9.485,0,0,1-10.587,0l-1.011,1.5a11.293,11.293,0,0,0,12.608,0Z" transform="translate(-280.168 -169.696)"/>
    </g>
  </g>
</svg>
