<svg xmlns="http://www.w3.org/2000/svg" width="56" height="56" viewBox="0 0 56 56">
  <defs>
    <style>
      .cls-1 {
        fill: #444f5e;
      }
    </style>
  </defs>
  <g id="dentist_3_" data-name="dentist (3)" transform="translate(-0.013 -1.168)">
    <path id="Path_1962" data-name="Path 1962" class="cls-1" d="M54.517,51.122l-3.176,3.3-.3-1.546c-.005-.027-.023-.049-.03-.075a.98.98,0,0,0-.069-.171.843.843,0,0,0-.1-.15c-.018-.022-.025-.049-.045-.069l-2.565-2.661a3.754,3.754,0,0,0-.531-4.435.913.913,0,0,0-.094-.064l-15-15.565,2.626-2.724.008-.005a3.731,3.731,0,0,0,.53-4.405l8.076-8.379a6.8,6.8,0,0,0,9.241-.6A7.468,7.468,0,0,0,53.1,3.3a6.825,6.825,0,0,0-9.9,0,7.476,7.476,0,0,0-.576,9.588l-8.076,8.379a3.4,3.4,0,0,0-4.246.55s0,.005-.005.008l-2.626,2.724L14.506,10.894s0-.005-.005-.008a3.4,3.4,0,0,0-4.245-.551L8.312,8.32l.619-.643a3.725,3.725,0,0,0,0-5.137,3.414,3.414,0,0,0-4.952,0L.269,6.39a.931.931,0,0,0,0,1.284.853.853,0,0,0,1.238,0l3.711-3.85a1.71,1.71,0,0,1,2.476,0,1.862,1.862,0,0,1,0,2.568L6.456,7.678a.932.932,0,0,0,0,1.284L9.019,11.62a3.733,3.733,0,0,0,.529,4.405l.008.005,4.324,4.486,0,0,0,0,1.852,1.922,0,0,0,0,6.973,7.234L3.157,49.972s0,.006-.006.009l-.009.006a1.866,1.866,0,0,0,0,2.568l2.475,2.568a1.707,1.707,0,0,0,2.475,0s0-.008.008-.012l.006,0,19.556-20.29L38.439,46l0,0,0,0,4.222,4.38a.753.753,0,0,0,.062.1,3.435,3.435,0,0,0,2.49,1.07h0A3.4,3.4,0,0,0,47,51.031L49.381,53.5l.565,2.941a.787.787,0,0,0,.032.086.818.818,0,0,0,.051.133.883.883,0,0,0,.111.174c.018.022.025.05.046.07a.385.385,0,0,0,.034.024.871.871,0,0,0,.191.132.849.849,0,0,0,.082.048.838.838,0,0,0,.311.063h0a.777.777,0,0,0,.17-.018.739.739,0,0,0,.073-.032.858.858,0,0,0,.163-.07.763.763,0,0,0,.147-.1c.02-.018.046-.025.066-.045l4.332-4.5a.931.931,0,0,0,0-1.284.853.853,0,0,0-1.239,0Zm-11.743-3.2-.619-.642,2.475-2.567.619.642ZM40.3,45.357l2.475-2.567.619.643L40.917,46Zm-1.857-1.926,2.475-2.567.62.642L39.06,44.073Zm5.99-38.85a5.119,5.119,0,0,1,7.427,0,5.6,5.6,0,0,1,0,7.706,5.117,5.117,0,0,1-7.427,0A5.6,5.6,0,0,1,44.431,4.581ZM34.011,23.1a1.869,1.869,0,0,1,0,2.565l-.005,0-6.946,7.206c-.007.007-.017.009-.023.016s-.009.017-.016.024L6.87,53.823s0,.008-.008.012l-.006,0L4.381,51.271s0-.006.006-.009l.009-.006,23.875-24.77c.005,0,.011-.006.016-.011s.006-.012.011-.016l3.239-3.36,0-.005a1.711,1.711,0,0,1,2.472,0Zm-18.272-3.22,2.475-2.567.62.643L16.359,20.52ZM13.882,17.95l2.475-2.567.619.642L14.5,18.592Zm-1.857-1.926L14.5,13.456l.619.642-2.475,2.567Zm1.234-3.857,0,.005L10.788,14.74l-.005,0a1.87,1.87,0,0,1,.005-2.566A1.709,1.709,0,0,1,13.259,12.167ZM17.6,21.8l2.475-2.567,6.356,6.594L23.953,28.4Zm13.78,9.162,8.3,8.613L37.2,42.147l-8.3-8.613ZM45.218,49.734a1.718,1.718,0,0,1-1.194-.488c-.007-.009-.011-.019-.018-.028l2.487-2.58c.009.008.018.011.026.019a1.885,1.885,0,0,1-.047,2.539,1.731,1.731,0,0,1-1.253.538Z"/>
    <path id="Path_1963" data-name="Path 1963" class="cls-1" d="M54.444,13.057a4.443,4.443,0,1,0-3.143-1.3A4.414,4.414,0,0,0,54.444,13.057ZM52.558,6.728A2.667,2.667,0,0,1,56.33,10.5a2.732,2.732,0,0,1-3.772,0,2.667,2.667,0,0,1,0-3.771Z" transform="translate(-6.421 -0.334)"/>
  </g>
</svg>
