<svg id="data_image_svg_xml_" data-name="data_image_svg+xml;…" xmlns="http://www.w3.org/2000/svg" width="20" height="20" viewBox="0 0 20 20">
  <defs>
    <style>
      .cls-1 {
        fill: none;
      }

      .cls-2 {
        fill: #2abce7;
      }
    </style>
  </defs>
  <path id="Path_2772" data-name="Path 2772" class="cls-1" d="M0,20V0H20V20Z"/>
  <g id="Group_10265" data-name="Group 10265" transform="translate(1.491 2.491)">
    <path id="Path_2773" data-name="Path 2773" class="cls-2" d="M24.553,10.688a3,3,0,0,0-3.014,2.959,3.078,3.078,0,0,0,.061.592l-5.463,2.414a3.038,3.038,0,0,0-2.435-1.23,2.96,2.96,0,1,0,0,5.918A3.029,3.029,0,0,0,16.146,20.1l5.468,2.386a2.811,2.811,0,0,0-.075.633,3.015,3.015,0,1,0,3.014-2.959A3.029,3.029,0,0,0,22.108,21.4l-5.468-2.381a2.884,2.884,0,0,0,.075-.638,2.935,2.935,0,0,0-.075-.647l5.435-2.414a3.027,3.027,0,0,0,2.477,1.285,2.96,2.96,0,1,0,0-5.918Zm0,1.184a1.776,1.776,0,1,1-1.808,1.776A1.781,1.781,0,0,1,24.553,11.871ZM13.7,16.606a1.776,1.776,0,1,1-1.808,1.776A1.781,1.781,0,0,1,13.7,16.606ZM24.553,21.34a1.776,1.776,0,1,1-1.808,1.776A1.781,1.781,0,0,1,24.553,21.34Z" transform="translate(-10.688 -10.688)"/>
  </g>
</svg>
