<svg xmlns="http://www.w3.org/2000/svg" width="56" height="56" viewBox="0 0 56 56">
  <defs>
    <style>
      .cls-1 {
        fill: #444f5e;
      }
    </style>
  </defs>
  <g id="teeth_1_" data-name="teeth (1)" transform="translate(0 0)">
    <path id="Path_1967" data-name="Path 1967" class="cls-1" d="M231.816,385.883q1.028.024,2.1.025v-2.074q-1.045,0-2.05-.025Zm0,0" transform="translate(-205.774 -334.056)"/>
    <path id="Path_1968" data-name="Path 1968" class="cls-1" d="M52.832,352.56c3.274,1.41,10.368,3.856,21.1,4.389l.1-2.072c-10.405-.516-17.236-2.867-20.382-4.221Zm0,0" transform="translate(-45.984 -305.201)"/>
    <path id="Path_1969" data-name="Path 1969" class="cls-1" d="M52.366,226.877A2.892,2.892,0,0,0,49.677,224H46.064a2.513,2.513,0,0,0-1.806.809A2.509,2.509,0,0,0,42.451,224H38.838a2.556,2.556,0,0,0-1.994,1.021A3.1,3.1,0,0,0,34.59,224H30.441A3.15,3.15,0,0,0,28,225.234,3.151,3.151,0,0,0,25.558,224H21.409a3.106,3.106,0,0,0-2.255,1.021A2.553,2.553,0,0,0,17.161,224H13.548a2.513,2.513,0,0,0-1.806.809A2.509,2.509,0,0,0,9.935,224H6.322a2.892,2.892,0,0,0-2.689,2.878l-3.47,12.95A4.809,4.809,0,0,0,0,241.074,4.187,4.187,0,0,0,2.822,245.2c1.168.734,9.729,5.764,25.177,5.764s24.01-5.03,25.177-5.765A4.185,4.185,0,0,0,56,241.074a4.815,4.815,0,0,0-.164-1.247Zm-6.3-.8h3.613a.978.978,0,0,1,.9,1.037v4.148a2.736,2.736,0,1,1-5.419,0v-4.148A.978.978,0,0,1,46.064,226.074Zm-8.129,1.037a.978.978,0,0,1,.9-1.037h3.613a.978.978,0,0,1,.9,1.037v4.148a2.935,2.935,0,0,1-2.71,3.111,2.935,2.935,0,0,1-2.71-3.111Zm-7.494-1.037H34.59a1.666,1.666,0,0,1,1.538,1.766,2.033,2.033,0,0,1-.037.384l-1.161,5.995a2.423,2.423,0,0,1-4.83,0l-1.161-5.995a2.033,2.033,0,0,1-.037-.384,1.666,1.666,0,0,1,1.538-1.766Zm-9.032,0h4.149A1.666,1.666,0,0,1,27.1,227.84a2.033,2.033,0,0,1-.037.384L25.9,234.219a2.561,2.561,0,0,1-2.415,2.225,2.561,2.561,0,0,1-2.415-2.225l-1.161-5.995a2.033,2.033,0,0,1-.037-.384,1.666,1.666,0,0,1,1.538-1.766Zm-7.861,0h3.613a.978.978,0,0,1,.9,1.037v4.148a2.935,2.935,0,0,1-2.71,3.111,2.935,2.935,0,0,1-2.71-3.111v-4.148A.978.978,0,0,1,13.548,226.074Zm-8.129,1.037a.978.978,0,0,1,.9-1.037H9.935a.978.978,0,0,1,.9,1.037v4.148a2.935,2.935,0,0,1-2.71,3.111,2.935,2.935,0,0,1-2.71-3.111ZM52.674,243.2l-.145.033-.13.086c-.083.056-8.567,5.567-24.4,5.567-15.784,0-24.316-5.512-24.4-5.568l-.13-.085-.144-.033a2.125,2.125,0,0,1-1.518-2.128,2.432,2.432,0,0,1,.084-.638l2-7.456a4.6,4.6,0,0,0,4.24,3.464,4.347,4.347,0,0,0,3.613-2.106,4.347,4.347,0,0,0,3.613,2.106A4.417,4.417,0,0,0,19.174,234l.13.673a4.433,4.433,0,0,0,4.179,3.849,4.433,4.433,0,0,0,4.179-3.849l.337-1.74.337,1.74a4.433,4.433,0,0,0,4.179,3.849,4.433,4.433,0,0,0,4.179-3.849l.13-.673a4.417,4.417,0,0,0,3.82,2.448,4.347,4.347,0,0,0,3.613-2.106,4.347,4.347,0,0,0,3.613,2.106,4.6,4.6,0,0,0,4.24-3.464l2,7.456a2.432,2.432,0,0,1,.084.638,2.125,2.125,0,0,1-1.519,2.128Zm0,0" transform="translate(0 -194.963)"/>
    <path id="Path_1970" data-name="Path 1970" class="cls-1" d="M250.1,32.026Q249.07,32,248,32v2.074q1.044,0,2.049.025Zm0,0" transform="translate(-220.14 -27.852)"/>
    <path id="Path_1971" data-name="Path 1971" class="cls-1" d="M300.8,37.189c-3.274-1.41-10.368-3.856-21.1-4.389l-.1,2.071c10.407.519,17.237,2.868,20.382,4.223Zm0,0" transform="translate(-251.653 -28.549)"/>
    <path id="Path_1972" data-name="Path 1972" class="cls-1" d="M3.634,24.086a2.892,2.892,0,0,0,2.689,2.878H9.936a2.513,2.513,0,0,0,1.806-.809,2.509,2.509,0,0,0,1.806.809h3.613a2.556,2.556,0,0,0,1.994-1.021,3.1,3.1,0,0,0,2.254,1.021h4.149A3.15,3.15,0,0,0,28,25.729a3.151,3.151,0,0,0,2.442,1.234h4.149a3.106,3.106,0,0,0,2.255-1.021,2.553,2.553,0,0,0,1.993,1.021h3.613a2.513,2.513,0,0,0,1.806-.809,2.509,2.509,0,0,0,1.806.809h3.613a2.892,2.892,0,0,0,2.689-2.878l3.47-12.949A4.811,4.811,0,0,0,56,9.889a4.186,4.186,0,0,0-2.823-4.124C52.01,5.03,43.449,0,28,0S3.991,5.03,2.823,5.765A4.184,4.184,0,0,0,0,9.889a4.8,4.8,0,0,0,.164,1.247Zm6.3.8H6.323a.978.978,0,0,1-.9-1.037V19.7a2.935,2.935,0,0,1,2.71-3.111,2.935,2.935,0,0,1,2.71,3.111v4.148A.978.978,0,0,1,9.936,24.889Zm8.129-1.037a.978.978,0,0,1-.9,1.037H13.549a.978.978,0,0,1-.9-1.037V19.7a2.935,2.935,0,0,1,2.71-3.111,2.935,2.935,0,0,1,2.71,3.111Zm7.494,1.037H21.409a1.666,1.666,0,0,1-1.538-1.766,2.025,2.025,0,0,1,.037-.384l1.161-6a2.561,2.561,0,0,1,2.415-2.224A2.561,2.561,0,0,1,25.9,16.744l1.162,6a2.07,2.07,0,0,1,.036.382,1.666,1.666,0,0,1-1.538,1.765Zm9.032,0H30.442A1.666,1.666,0,0,1,28.9,23.123a2.025,2.025,0,0,1,.037-.384l1.161-6a2.423,2.423,0,0,1,4.83,0l1.162,6a2.07,2.07,0,0,1,.036.382,1.666,1.666,0,0,1-1.538,1.765Zm7.861,0H38.839a.978.978,0,0,1-.9-1.037V19.7a2.935,2.935,0,0,1,2.71-3.111,2.935,2.935,0,0,1,2.71,3.111v4.148A.978.978,0,0,1,42.452,24.889Zm8.129-1.037a.978.978,0,0,1-.9,1.037H46.065a.978.978,0,0,1-.9-1.037V19.7a2.736,2.736,0,1,1,5.419,0ZM3.326,7.76l.145-.033.13-.086c.083-.055,8.567-5.567,24.4-5.567,15.784,0,24.316,5.512,24.4,5.568l.13.086.144.033a2.122,2.122,0,0,1,1.518,2.127,2.432,2.432,0,0,1-.084.638l-2,7.456a4.6,4.6,0,0,0-4.24-3.464,4.347,4.347,0,0,0-3.613,2.106,4.347,4.347,0,0,0-3.613-2.106,4.417,4.417,0,0,0-3.82,2.448l-.13-.673a4.433,4.433,0,0,0-4.179-3.849,4.433,4.433,0,0,0-4.179,3.849L28,18.035l-.337-1.741a4.433,4.433,0,0,0-4.179-3.849A4.433,4.433,0,0,0,19.3,16.294l-.13.673a4.417,4.417,0,0,0-3.82-2.448,4.347,4.347,0,0,0-3.613,2.106,4.347,4.347,0,0,0-3.613-2.106,4.6,4.6,0,0,0-4.24,3.464l-2-7.457a2.419,2.419,0,0,1-.084-.637A2.124,2.124,0,0,1,3.326,7.76Zm0,0" transform="translate(-0.001)"/>
  </g>
</svg>
