<svg id="data_image_svg_xml_1_" data-name="data_image_svg+xml;… (1)" xmlns="http://www.w3.org/2000/svg" width="20" height="20" viewBox="0 0 20 20">
  <defs>
    <style>
      .cls-1 {
        fill: none;
      }

      .cls-2 {
        fill: #444f5e;
      }
    </style>
  </defs>
  <path id="Path_1447" data-name="Path 1447" class="cls-1" d="M0,20V0H20V20Z"/>
  <g id="Group_8611" data-name="Group 8611" transform="translate(2.25 2.25)">
    <path id="Path_1448" data-name="Path 1448" class="cls-2" d="M15.249,10.75a4.508,4.508,0,0,0-4.5,4.5v6.506a4.507,4.507,0,0,0,4.5,4.494h6.506a4.507,4.507,0,0,0,4.494-4.5v-6.5a4.508,4.508,0,0,0-4.5-4.5Zm0,1.192h6.5a3.3,3.3,0,0,1,3.307,3.307v6.5a3.3,3.3,0,0,1-3.3,3.307H15.249a3.3,3.3,0,0,1-3.307-3.3V15.249a3.3,3.3,0,0,1,3.307-3.307Zm8.02,1.192a.6.6,0,1,0,.6.6A.594.594,0,0,0,23.269,13.135ZM18.5,14.327A4.173,4.173,0,1,0,22.673,18.5,4.184,4.184,0,0,0,18.5,14.327Zm0,1.192A2.981,2.981,0,1,1,15.519,18.5,2.972,2.972,0,0,1,18.5,15.519Z" transform="translate(-10.75 -10.75)"/>
  </g>
</svg>
