<svg id="data_image_svg_xml_7_" data-name="data_image_svg+xml;… (7)" xmlns="http://www.w3.org/2000/svg" width="20" height="20" viewBox="0 0 20 20">
  <defs>
    <style>
      .cls-1 {
        fill: none;
      }

      .cls-2 {
        fill: #fff;
      }
    </style>
  </defs>
  <path id="Path_1367" data-name="Path 1367" class="cls-1" d="M0,20V0H20V20Z"/>
  <g id="Group_8583" data-name="Group 8583" transform="translate(3.75 1.25)">
    <path id="Path_1368" data-name="Path 1368" class="cls-2" d="M38.5,10.75A6.262,6.262,0,0,0,32.25,17a7.533,7.533,0,0,0,.942,3.145,29.114,29.114,0,0,0,1.978,3.364C36.6,25.652,38.017,27.4,38.017,27.4l.483.6.483-.6s1.421-1.743,2.852-3.887a29.786,29.786,0,0,0,1.973-3.364A7.533,7.533,0,0,0,44.75,17a6.262,6.262,0,0,0-6.25-6.25Zm0,1.25a4.991,4.991,0,0,1,5,5,6.975,6.975,0,0,1-.815,2.6,29.869,29.869,0,0,1-1.89,3.223c-1.147,1.719-1.929,2.666-2.295,3.125-.366-.459-1.147-1.406-2.295-3.125a29.87,29.87,0,0,1-1.89-3.223A6.975,6.975,0,0,1,33.5,17,4.991,4.991,0,0,1,38.5,12Zm0,3.75A1.25,1.25,0,1,0,39.75,17,1.252,1.252,0,0,0,38.5,15.75Z" transform="translate(-32.25 -10.75)"/>
  </g>
</svg>
