<svg xmlns="http://www.w3.org/2000/svg" width="24" height="24" viewBox="0 0 24 24">
    <path fill="none" d="M0 24V0h24v24z"/>
    <g>
        <path fill="#fff" d="M39.755 21.5a4.5 4.5 0 1 0 4.5 4.5 4.511 4.511 0 0 0-4.5-4.5zm0 9A7.511 7.511 0 0 0 32.25 38h1.5a5.978 5.978 0 0 1 9.686-4.713l1.05-1.067a7.479 7.479 0 0 0-4.731-1.72zm0-7.5a3 3 0 1 1-3 3 2.992 2.992 0 0 1 3-3zm9.311 7.509a1.885 1.885 0 0 0-1.337.569l-7 7.116-1.044 4.385 4.386-1.038.147-.152 6.977-6.852a1.9 1.9 0 0 0 .012-2.691l-.786-.791a1.877 1.877 0 0 0-1.354-.545zM49.078 32a.4.4 0 0 1 .281.123l.786.785a.383.383 0 0 1 0 .563l-6.825 6.7-1.618.393.387-1.618 6.711-6.824a.375.375 0 0 1 .278-.122z" transform="translate(2.487 .991) translate(-32.25 -21.5)"/>
    </g>
</svg>
