<svg id="data_image_svg_xml_1_" data-name="data_image_svg+xml;… (1)" xmlns="http://www.w3.org/2000/svg" width="20" height="20" viewBox="0 0 20 20">
  <defs>
    <style>
      .cls-1 {
        fill: none;
      }

      .cls-2 {
        fill: #fff;
      }
    </style>
  </defs>
  <path id="Path_2802" data-name="Path 2802" class="cls-1" d="M0,20V0H20V20Z"/>
  <g id="Group_10794" data-name="Group 10794" transform="translate(3.319 2.076)">
    <path id="Path_2803" data-name="Path 2803" class="cls-2" d="M23.239,10.687a1.871,1.871,0,0,0-1.864,1.864V24.98a1.871,1.871,0,0,0,1.864,1.864h9.942a1.871,1.871,0,0,0,1.864-1.864V12.552a1.871,1.871,0,0,0-1.864-1.864Zm0,1.243h9.942a.613.613,0,0,1,.621.621V24.98a.613.613,0,0,1-.621.621H23.239a.613.613,0,0,1-.621-.621V12.552A.613.613,0,0,1,23.239,11.93ZM25.1,14.416v1.243h6.214V14.416Zm0,2.486v1.243h3.728V16.9Zm0,2.486V20.63h6.214V19.387Zm3.107,2.486a1.871,1.871,0,0,0-1.864,1.864v.621h1.243v-.621a.621.621,0,0,1,1.243,0v.621h1.243v-.621a1.871,1.871,0,0,0-1.864-1.864Z" transform="translate(-21.375 -10.687)"/>
  </g>
</svg>
