<svg xmlns="http://www.w3.org/2000/svg" width="56" height="56" viewBox="0 0 56 56">
  <defs>
    <style>
      .cls-1 {
        fill: #444f5e;
      }
    </style>
  </defs>
  <g id="teeth_3_" data-name="teeth (3)" transform="translate(-0.038 0)">
    <g id="Group_8908" data-name="Group 8908" transform="translate(0.038 0)">
      <g id="Group_8907" data-name="Group 8907">
        <path id="Path_1997" data-name="Path 1997" class="cls-1" d="M9.354,4.51a.933.933,0,0,0-.765-.765A3.611,3.611,0,0,1,5.623.778a.933.933,0,0,0-1.841,0A3.61,3.61,0,0,1,.816,3.745a.933.933,0,0,0,0,1.841A3.611,3.611,0,0,1,3.782,8.553a.933.933,0,0,0,1.841,0A3.611,3.611,0,0,1,8.589,5.586.933.933,0,0,0,9.354,4.51ZM4.7,6A5.479,5.479,0,0,0,3.369,4.665,5.479,5.479,0,0,0,4.7,3.332,5.479,5.479,0,0,0,6.035,4.665,5.479,5.479,0,0,0,4.7,6Z" transform="translate(-0.038 0)"/>
      </g>
    </g>
    <g id="Group_8910" data-name="Group 8910" transform="translate(5.636 5.594)">
      <g id="Group_8909" data-name="Group 8909">
        <path id="Path_1998" data-name="Path 1998" class="cls-1" d="M79.5,47.953a13.325,13.325,0,0,0-5.251,1.078,9.766,9.766,0,0,1-7.654,0A13.324,13.324,0,0,0,48.017,61.276a29.286,29.286,0,0,0,4.458,15.542l.267.428,4.03,17.732a4.337,4.337,0,0,0,8.507-.249l2.8-16.793a2.373,2.373,0,0,1,4.68,0l2.8,16.792a4.338,4.338,0,0,0,8.508.248L88.1,77.244l.267-.428a29.285,29.285,0,0,0,4.456-15.54A13.323,13.323,0,0,0,79.5,47.953ZM86.78,75.83l-.351.56a.971.971,0,0,0-.119.287L82.246,94.56a2.471,2.471,0,0,1-4.846-.141L74.6,77.627a4.239,4.239,0,0,0-8.362,0l-2.8,16.793a2.47,2.47,0,0,1-4.845.142L54.528,76.678a.971.971,0,0,0-.119-.287l-.351-.56a27.434,27.434,0,0,1-4.174-14.554,11.459,11.459,0,0,1,15.972-10.53,11.631,11.631,0,0,0,9.127,0,11.458,11.458,0,0,1,15.972,10.53A27.435,27.435,0,0,1,86.78,75.83Z" transform="translate(-48.017 -47.95)"/>
      </g>
    </g>
    <g id="Group_8912" data-name="Group 8912" transform="translate(10.303 11.216)">
      <g id="Group_8911" data-name="Group 8911">
        <path id="Path_1999" data-name="Path 1999" class="cls-1" d="M93.617,97.062l-.187-.915c-1.867.374-5.414,2.413-5.414,7.449h1.867c0-4.733,3.762-5.586,3.92-5.62Z" transform="translate(-88.017 -96.147)"/>
      </g>
    </g>
    <g id="Group_8914" data-name="Group 8914" transform="translate(17.77 11.197)">
      <g id="Group_8913" data-name="Group 8913">
        <rect id="Rectangle_235" data-name="Rectangle 235" class="cls-1" width="1.867" height="1.867"/>
      </g>
    </g>
    <g id="Group_8916" data-name="Group 8916" transform="translate(46.708 39.195)">
      <g id="Group_8915" data-name="Group 8915">
        <path id="Path_2000" data-name="Path 2000" class="cls-1" d="M409.354,340.51a.933.933,0,0,0-.765-.765,3.611,3.611,0,0,1-2.966-2.967.933.933,0,0,0-1.841,0,3.611,3.611,0,0,1-2.966,2.967.933.933,0,0,0,0,1.841,3.611,3.611,0,0,1,2.966,2.967.933.933,0,0,0,1.841,0,3.611,3.611,0,0,1,2.966-2.967A.933.933,0,0,0,409.354,340.51ZM404.7,342a5.479,5.479,0,0,0-1.333-1.333,5.479,5.479,0,0,0,1.333-1.333,5.479,5.479,0,0,0,1.333,1.333A5.478,5.478,0,0,0,404.7,342Z" transform="translate(-400.038 -336)"/>
      </g>
    </g>
  </g>
</svg>
