<svg id="data_image_svg_xml_3_" data-name="data_image_svg+xml;… (3)" xmlns="http://www.w3.org/2000/svg" width="20" height="20" viewBox="0 0 20 20">
  <defs>
    <style>
      .cls-1 {
        fill: none;
      }

      .cls-2 {
        fill: #fff;
      }
    </style>
  </defs>
  <path id="Path_211" data-name="Path 211" class="cls-1" d="M0,20V0H20V20Z"/>
  <g id="Group_7620" data-name="Group 7620" transform="translate(2.5 2)">
    <path id="Path_212" data-name="Path 212" class="cls-2" d="M39.75,21.5a4.5,4.5,0,1,0,4.5,4.5A4.509,4.509,0,0,0,39.75,21.5Zm0,9a7.514,7.514,0,0,0-7.5,7.5h1.5a6,6,0,0,1,12,0h1.5A7.514,7.514,0,0,0,39.75,30.5Zm0-7.5a3,3,0,1,1-3,3A2.991,2.991,0,0,1,39.75,23Z" transform="translate(-32.25 -21.5)"/>
  </g>
</svg>
