<svg id="data_image_svg_xml_" data-name="data_image_svg+xml;…" xmlns="http://www.w3.org/2000/svg" width="20" height="20" viewBox="0 0 20 20">
  <defs>
    <style>
      .cls-1 {
        fill: none;
      }

      .cls-2 {
        fill: #444f5e;
      }
    </style>
  </defs>
  <path id="Path_1491" data-name="Path 1491" class="cls-1" d="M0,20V0H20V20Z"/>
  <g id="Group_8633" data-name="Group 8633" transform="translate(1.243 3.486)">
    <path id="Path_1492" data-name="Path 1492" class="cls-2" d="M19.387,21.375a42.527,42.527,0,0,0-6.141.466A2.655,2.655,0,0,0,11.037,24a25.516,25.516,0,0,0,0,8.418,2.661,2.661,0,0,0,2.209,2.16,42.77,42.77,0,0,0,6.141.466,42.692,42.692,0,0,0,6.136-.466h0a2.655,2.655,0,0,0,2.209-2.16,24.248,24.248,0,0,0,.35-4.209A23.6,23.6,0,0,0,27.732,24a2.644,2.644,0,0,0-2.2-2.16A42.527,42.527,0,0,0,19.387,21.375Zm0,1.243a41.187,41.187,0,0,1,5.956.451,1.407,1.407,0,0,1,1.165,1.151,22.684,22.684,0,0,1,.335,3.99,23.146,23.146,0,0,1-.33,3.986,1.407,1.407,0,0,1-1.17,1.155,42.213,42.213,0,0,1-5.956.451,42.15,42.15,0,0,1-5.956-.451A1.412,1.412,0,0,1,12.26,32.2a24.254,24.254,0,0,1,0-7.976,1.4,1.4,0,0,1,1.165-1.146h0a41.063,41.063,0,0,1,5.956-.456ZM16.9,25.1v6.214l6.214-3.107Z" transform="translate(-10.687 -21.375)"/>
  </g>
</svg>
